<?xml version="1.0" encoding="UTF-8"?>
<svg id="Layer_1" data-name="Layer 1" xmlns="http://www.w3.org/2000/svg" viewBox="0 0 338.83 202.29">
  <defs>
    <style>
      .cls-1 {
        fill: #fff;
        stroke-width: 0px;
      }
    </style>
  </defs>
  <path class="cls-1" d="M181.6,74.89h-18.56v-18.54c0-2.42-1.96-4.38-4.39-4.38h-11.4c-2.42,0-4.39,1.96-4.39,4.38v18.54h-18.09c-2.42,0-4.39,1.96-4.39,4.38v11.41c0,2.42,1.96,4.38,4.39,4.38h18.09v18.04c0,2.42,1.96,4.38,4.39,4.38h11.4c2.42,0,4.39-1.96,4.39-4.38v-18.04h18.56c2.42,0,4.39-1.96,4.39-4.38v-11.41c0-2.42-1.96-4.38-4.39-4.38Z"/>
  <path class="cls-1" d="M253.39,163.91l-35.83-35.83-8.67-.41c9.19-11.88,14.66-26.77,14.66-42.95,0-38.8-31.46-70.25-70.27-70.25s-70.25,31.45-70.25,70.25,31.45,70.27,70.25,70.27c15.95,0,30.66-5.32,42.46-14.28l.31,8.88,35.83,35.83c3.21,3.21,8.42,3.21,11.63,0l9.87-9.87c3.21-3.21,3.21-8.42,0-11.63ZM153.28,129.37c-24.82,0-44.95-20.13-44.95-44.95s20.13-44.93,44.95-44.93,44.95,20.11,44.95,44.93-20.13,44.95-44.95,44.95ZM205.76,139.87h0s0,0,0,0h0Z"/>
</svg>